<svg id="Layer_1" data-name="Layer 1" xmlns="http://www.w3.org/2000/svg" viewBox="0 0 128.42 50.23"><defs><style>.cls-1{fill:#666a85;}.cls-2{fill:#539886;}.cls-3{fill:none;}.cls-4,.cls-6{fill:#fff;}.cls-5,.cls-8{fill:#ef6449;}.cls-6{font-size:12px;}.cls-6,.cls-8{font-family:Roboto-Bold, Roboto;font-weight:700;}.cls-7{letter-spacing:-0.02em;}.cls-8{font-size:9px;}.cls-9{letter-spacing:-0.01em;}.cls-10{letter-spacing:-0.01em;}.cls-11{letter-spacing:0em;}</style></defs><title>logo</title><path class="cls-1" d="M51.33,39c-10.9,1.4-21.36-3.6-25-12.7-.12-.29-.23-.58-.32-.87C35.91,23.7,46.48,29.12,51.33,39Z"/><path class="cls-2" d="M26.29,26.27c-.14-.34-.33-.51-.45-.85l.13,0C26.06,25.69,26.17,26,26.29,26.27Z"/><path class="cls-2" d="M25.91,25.25h0v0C23.05,15.91,28,5.28,37.77,0,40,10.45,35.3,21.22,25.91,25.25Z"/><path class="cls-3" d="M26,25.4a.76.76,0,0,0,0-.11"/><path class="cls-3" d="M25.91,25.27v0"/><path class="cls-4" d="M13.61,50.23c-2.17-10.48,2.74-20.86,12.23-24.81C28.66,34.76,23.49,45,13.61,50.23Z"/><path class="cls-5" d="M25.84,25.42C15.73,27.32,4.87,21.26,0,11.2c11-1.52,21.59,3.48,25.29,12.66.16.39.31.79.44,1.19S25.84,25.42,25.84,25.42Z"/><text class="cls-6" transform="translate(45.65 22.91) scale(1.06 1)">PO<tspan class="cls-7" x="16.03" y="0">R</tspan><tspan x="23.39" y="0">TFOLIO</tspan></text><text class="cls-8" transform="translate(54.65 32.65) scale(1.06 1)"><tspan class="cls-9">b</tspan><tspan x="5.02" y="0">y Mr</tspan><tspan class="cls-10" x="22.94" y="0">P</tspan><tspan class="cls-11" x="28.69" y="0">oliteGrizly</tspan></text></svg>